<?xml version="1.0" encoding="UTF-8"?>
<svg id="Layer_1" xmlns="http://www.w3.org/2000/svg" version="1.1" viewBox="0 0 1080 1080">
  <!-- Generator: Adobe Illustrator 30.4.0, SVG Export Plug-In . SVG Version: 2.1.4 Build 226)  -->
  <defs>
    <style>
      .st0 {
        fill: #fff;
      }
    </style>
  </defs>
  <path d="M421.3,949.5l-11.4-19.6,3.7,18.7c.2,1-.4,4.1-1.4,3.8l-4.3-1.1-20.3-42.6c-7.9-19.5-16.6-38.1-28.3-55.9-1.5,1.9-3,3.6-4.1,4.2-5.5,2.8-28.8-39-34.1-51.7l-17.3-41.6c-1.6-.9-3.9-2.8-4.5-4.5-11.7-32.2-19.4-70.1-21.8-103.5l-3.6-.4c-.9,0-1.1-2.5-1.2-3.7l-5.1-81.9c-1.3-21.1-.9-40.9.1-62l3.5-74.9c1-20.7-4.1-40.5-8.6-60.1l-1.4,11.1c-.1,1-2,2.9-2.9,3.2-5.3,1.6-10.7-20.5-13-31.5-4.7-23.2-5.7-45.8-3.5-69.8l-6.6,8.7c-1.2,1.6-4.5,3.1-6.4,2.6s-3.9-3.8-4-6c-.6-50.1,30.4-100.2,66.1-133.4-2.4-3.7-2.2-7.8,0-11.7,13.1-22.3,30.9-41.4,52.8-55.9,12.4-8.2,25-16.9,39.4-21.5,37-11.8,74.3-19.8,112.4-27.5,56-11.2,109.9-10.5,161.9,14.4l68.9,33c18.7,8.9,35.5,19.5,51.5,32.4,42.2,34.2,62.3,82,68.4,135.3,4,34.5-1.1,67.9-14.8,99.7-14.2,33.1-16.8,23.8-10.6,59.8,4.7,27.3,5.8,53.4,4.6,81.2l-3.3,76.9-2.6,56c-1.3,26.5-7,51.3-14.1,76.7l-17.8,63.2c-5.4,19.1-13.3,36.5-23.5,53.3l-19,27.9-2.6.2c-.6,0-1.8-1.9-1.6-2.4l2.5-6.6c0-1.7-.4-1.7-1.1-.1l-18.1,32c-9.2,16.2-20.7,29.2-33.1,43l-49.7,55.2c-1,.7-3,1-3.9.6-4.3-2.3,5.3-11.9,7-21.8l-26.7,30.7-32.5,34.4c-6.8,7.2-14.4,13.2-23.1,17.9l-15.5,8.4-2.9,3.7c-.7.9-3.7-.3-4.7-.9l-60.2-35.7c-23.5-15.6-43.2-34.9-57.6-59.7ZM803.8,496.6l-4.8-57c-1.3-15.2-1.1-29.6-.2-44.9,1-17.7-1-27.4-15.5-38.7-15.7-12.3-33.2-21.1-53.2-26.5,7.6,15.1,11.7,29.8,10.8,46.3l-2.7,1.7c-1.7,1-8.1-12.4-16.4-20.8-14.4-14.6-32-23.3-51.9-28.3-25.2-6.3-49.9-10-76.3-7.1,9.9,20.1,28.4,34.8,49.3,43.2,13.6,5.5,24.2-.1,25,4.8,1.1,7.1-24.4,19.7-54.3,1.4-25.7-15.7-54.2-25.2-84.6-26.2l-51.6.3c7.1,4.2,14.1,7.1,22,9.4l23.8,7.1c9.3,2.8,19.8,12.4,14,17.1-11.8-3.4-23.8-6-36.3-6.8l-36-2.1c-15.6-.9-30.4-3.5-45.1-8.6-16.9-6.7-32.7-14.6-46.4-26.6l-32.1-28-27.2,50.4c-4.2,7.7-6.1,16.2-7,25.1-2.6,24.9-3.6,49.1-4.5,74.1l-2.9,78.6c-.9,24.1,1.3,46.5,7.8,69.6l15.1,53.1c6.2,21.9,17.1,41.2,30.3,59.5s31.1,42.3,54.7,46.2c-6-26.3-7.3-57.7,3.9-81s24.7-20.8,42.8-17.7c20,3.5,33.5-4.4,49.7-14.9l-1.6-3.9c-.3-.7,2.2-2.3,2.6-2.3,7.5,5.7,15.1,9.3,23.9,11.7,16.8,4.7,34.7.3,46.5-12.9,1.1,0,3.8,1.8,3.3,2.7l-2.1,3.5c9.4,11.4,23.5,16.6,38.3,16.9l35,.6c10.8-.6,19.2,5.3,22.7,15.6,6.9,20.8,7.6,42.3,4.9,65,20.2-12.3,38.3-25.2,54.7-41.3,28.1-20.2,48.8-47.3,61.1-79.9,5.9-28.3,9.7-55.9,10.1-84.7l.7-43.4ZM503.8,782.1c25,7.4,50.2,7.2,75,.2s7,.3,8.5,2c6.6,7.1-2,21.7-10.4,28.4l-17.2,13.7c-2.6,2.1-4,5.3-3,7.5s3.8,5,7,4.6c19.3-2,37.5-7.3,53.1-18.9,8.3-6.2,16.8-15.2,17.6-26.2,1.8-25.1-1.9-49.6-7.4-74.2l-33.9-6.2c-19.6-5.4-37.1-14.9-51-29.5-7.7,8.2-16.3,14.3-26.7,17.7l-31.6,10.4c-10.9,3-20.9,6.7-31.2,12-5.7,23.2-6.9,46.9-3.7,70.4,1.3,9.9,7.2,16.8,13.8,23.3,8.3,8.2,17.4,13.5,29,16.2,12.3,2.8,27.7,4.4,29.4-5.2s-19.8-10.9-29.5-34.9c-1.1-2.7-1.6-7.3.5-9.4s7.5-3,11.5-1.8Z"/>
  <path class="st0" d="M803.8,496.6l-.7,43.4c-.4,28.8-4.2,56.5-10.1,84.7-12.2,32.6-32.9,59.7-61.1,79.9-16.3,16.1-34.4,29-54.7,41.3,2.7-22.7,1.9-44.3-4.9-65-3.4-10.3-11.9-16.3-22.7-15.6l-35-.6c-14.9-.3-28.9-5.5-38.3-16.9l2.1-3.5c.5-.8-2.1-2.6-3.3-2.7-11.8,13.2-29.7,17.7-46.5,12.9-8.9-2.4-16.5-5.9-23.9-11.7-.5,0-2.9,1.7-2.6,2.3l1.6,3.9c-16.1,10.4-29.7,18.3-49.7,14.9-18-3.1-34.8,1.1-42.8,17.7s-9.9,54.7-3.9,81c-23.6-3.9-41.2-27.6-54.7-46.2s-24.1-37.6-30.3-59.5l-15.1-53.1c-6.5-23-8.7-45.5-7.8-69.6l2.9-78.6c.9-25,2-49.2,4.5-74.1s2.9-17.3,7-25.1l27.2-50.4,32.1,28c13.7,12,29.5,19.8,46.4,26.6,14.7,5.2,29.5,7.7,45.1,8.6l36,2.1c12.5.7,24.6,3.4,36.3,6.8,5.9-4.7-4.7-14.4-14-17.1l-23.8-7.1c-7.8-2.3-14.8-5.2-22-9.4l51.6-.3c30.4,1,58.9,10.5,84.6,26.2,29.9,18.3,55.4,5.7,54.3-1.4-.8-4.9-11.4.7-25-4.8-21-8.4-39.4-23.1-49.3-43.2,26.4-2.8,51.2.8,76.3,7.1,19.8,4.9,37.5,13.7,51.9,28.3,8.3,8.4,14.8,21.9,16.4,20.8l2.7-1.7c.9-16.6-3.3-31.2-10.8-46.3,20.1,5.4,37.6,14.2,53.2,26.5,14.4,11.3,16.5,21.1,15.5,38.7-.9,15.2-1.1,29.7.2,44.9l4.8,57ZM491.1,442.4c3.6-1.5,5.6-6.1,4.5-9.5l-4.1-12.8c-1.7-5.3-5.9-6-10.7-6.1-29.2-.4-59.6-8.2-93.9-9.2-14.1-.4-26.8,3.2-37.4,12.4-7.7,4.2-14.6,9-21.3,14.6l-.6,3.2c-.1.6,1.6,1.2,2.5,1.3,29.8,3.2,58.7,3.4,88.7,3.4s36.8,2.5,55.4,4.5,11.2.7,16.9-1.8ZM631.3,443.8c20.4-2.3,39.4-4.3,59.4-4,27.4.4,53.6-.6,80.8-3.9.3-1.8-.4-4.4-1.7-5.3l-21.1-14.9c-10.9-7.7-22.6-12-36.2-10.7l-49.8,4.9-42.1,4.4c-3.1.3-9.1-.8-10.9,2.3-3.1,5.2-4.9,11.2-6.2,17.1-2.6,11.9,13.7,11.7,27.7,10.1Z"/>
  <path class="st0" d="M503.8,782.1c-4-1.2-8.9-.9-11.5,1.8s-1.5,6.8-.5,9.4c9.7,24,31,27,29.5,34.9s-17.2,8-29.4,5.2c-11.5-2.6-20.6-8-29-16.2-6.6-6.5-12.5-13.4-13.8-23.3-3.2-23.5-2.1-47.3,3.7-70.4,10.3-5.4,20.3-9.1,31.2-12l31.6-10.4c10.4-3.4,19-9.6,26.7-17.7,13.8,14.6,31.4,24.2,51,29.5l33.9,6.2c5.5,24.5,9.2,49.1,7.4,74.2-.8,11-9.2,20-17.6,26.2-15.6,11.5-33.9,16.8-53.1,18.9s-5.6-1.6-7-4.6.4-5.4,3-7.5l17.2-13.7c8.3-6.7,16.9-21.3,10.4-28.4s-5.9-2.7-8.5-2c-24.7,7-49.9,7.2-75-.2Z"/>
  <path d="M631.3,443.8c-14,1.6-30.3,1.8-27.7-10.1s3.1-11.9,6.2-17.1,7.8-2,10.9-2.3l42.1-4.4,49.8-4.9c13.5-1.3,25.3,3,36.2,10.7l21.1,14.9c1.3.9,2,3.5,1.7,5.3-27.3,3.2-53.4,4.3-80.8,3.9-20-.3-39,1.7-59.4,4Z"/>
  <path d="M491.1,442.4c-5.7,2.5-11.2,2.4-16.9,1.8-18.6-1.9-36.5-4.5-55.4-4.5-30,0-59-.1-88.7-3.4-.8,0-2.6-.6-2.5-1.3l.6-3.2c6.8-5.7,13.6-10.4,21.3-14.6,10.6-9.2,23.3-12.8,37.4-12.4,34.3,1,64.6,8.8,93.9,9.2s9.1.8,10.7,6.1l4.1,12.8c1.1,3.4-.9,8-4.5,9.5Z"/>
</svg>